<svg xmlns="http://www.w3.org/2000/svg" xmlns:xlink="http://www.w3.org/1999/xlink" viewBox="0 0 223.42 42"><defs><linearGradient id="a" x1="13.02" y1="25.73" x2="28.98" y2="25.73" gradientUnits="userSpaceOnUse"><stop offset="0.2" stop-color="#0a0c11"/><stop offset="1" stop-color="#303030"/></linearGradient><linearGradient id="b" x1="13.02" y1="21" x2="28.98" y2="21" gradientUnits="userSpaceOnUse"><stop offset="0.2" stop-color="#303030"/><stop offset="1" stop-color="#0a0c11"/></linearGradient></defs><title>header-logo-dark</title><path d="M75.54,26.53a3.4,3.4,0,0,1-2.4.77H71.25V25.93h2.07a1.52,1.52,0,0,0,1.08-.39,1.28,1.28,0,0,0,.41-1V16.05H71.92V14.7h4.46v9.54A2.94,2.94,0,0,1,75.54,26.53Z" transform="translate(0)" fill="#fff"/><path d="M86.34,26.53a3.4,3.4,0,0,1-2.4.77h-.72a3.38,3.38,0,0,1-2.4-.77A2.94,2.94,0,0,1,80,24.24V17.76a2.94,2.94,0,0,1,.84-2.29,3.43,3.43,0,0,1,2.4-.77h.72a3.44,3.44,0,0,1,2.4.77,2.94,2.94,0,0,1,.84,2.29v6.48A2.94,2.94,0,0,1,86.34,26.53ZM85.2,16.46a1.52,1.52,0,0,0-1.08-.39H83a1.52,1.52,0,0,0-1.08.39,1.28,1.28,0,0,0-.41,1v7.16a1.28,1.28,0,0,0,.41,1,1.52,1.52,0,0,0,1.08.39h1.08a1.52,1.52,0,0,0,1.08-.39,1.28,1.28,0,0,0,.41-1V17.42A1.28,1.28,0,0,0,85.2,16.46Z" transform="translate(0)" fill="#fff"/><path d="M91.32,27.3H89.86V14.7h2.56L95.26,26V14.7h1.46V27.3H94.15L91.32,16Z" transform="translate(0)" fill="#fff"/><path d="M101.27,24.11l-.7,3.19H99l3-12.6h2.07l3,12.6h-1.6l-.69-3.19Zm3.23-1.35L103,15.89l-1.46,6.87Z" transform="translate(0)" fill="#fff"/><path d="M112,27.3V16.07h-2.86V14.7h7.29v1.37h-2.87V27.3Z" transform="translate(0)" fill="#fff"/><path d="M120.61,21.5v5.8H119V14.7h1.57v5.47h3.7V14.7h1.57V27.3h-1.57V21.5Z" transform="translate(0)" fill="#fff"/><path d="M130.43,24.11l-.7,3.19h-1.6l3-12.6h2.07l3,12.6h-1.6l-.69-3.19Zm3.23-1.35-1.48-6.87-1.46,6.87Z" transform="translate(0)" fill="#fff"/><path d="M139.92,27.3h-1.46V14.7H141L143.86,26V14.7h1.46V27.3h-2.57L139.92,16Z" transform="translate(0)" fill="#fff"/><path d="M149.56,26.53a2.94,2.94,0,0,1-.84-2.29V17.76a2.94,2.94,0,0,1,.84-2.29,3.44,3.44,0,0,1,2.4-.77h2.56v1.37h-2.74a1.52,1.52,0,0,0-1.08.39,1.28,1.28,0,0,0-.41,1v7.16a1.28,1.28,0,0,0,.41,1,1.52,1.52,0,0,0,1.08.39h2.74V27.3H152A3.4,3.4,0,0,1,149.56,26.53Z" transform="translate(0)" fill="#fff"/><path d="M164.1,26.53a3.4,3.4,0,0,1-2.4.77H161a3.38,3.38,0,0,1-2.4-.77,2.94,2.94,0,0,1-.84-2.29V17.76a2.94,2.94,0,0,1,.84-2.29,3.43,3.43,0,0,1,2.4-.77h.72a3.44,3.44,0,0,1,2.4.77,2.94,2.94,0,0,1,.84,2.29v6.48A2.94,2.94,0,0,1,164.1,26.53ZM163,16.46a1.52,1.52,0,0,0-1.08-.39H160.8a1.52,1.52,0,0,0-1.08.39,1.29,1.29,0,0,0-.42,1v7.16a1.29,1.29,0,0,0,.42,1,1.52,1.52,0,0,0,1.08.39h1.08a1.52,1.52,0,0,0,1.08-.39,1.32,1.32,0,0,0,.41-1V17.42A1.32,1.32,0,0,0,163,16.46Z" transform="translate(0)" fill="#fff"/><path d="M169.83,14.7V25.93h4V27.3h-5.58V14.7Z" transform="translate(0)" fill="#fff"/><path d="M183.79,14.7V16h-4.45v4.13h4v1.31h-4V26h4.45V27.3h-6V14.7Z" transform="translate(0)" fill="#fff"/><path d="M191.4,25.5v1.8h-1.8V25.5Z" transform="translate(0)" fill="#fff"/><path d="M202.89,26.65a3.46,3.46,0,0,1-2.35.65h-3.71V14.7h3.5a3.84,3.84,0,0,1,2.44.66,2.56,2.56,0,0,1,.83,2.15v7A2.83,2.83,0,0,1,202.89,26.65ZM201.68,16.4a1.33,1.33,0,0,0-1-.35H198.4V26h2.31a1.38,1.38,0,0,0,1-.31,1.34,1.34,0,0,0,.33-1V17.35A1.27,1.27,0,0,0,201.68,16.4Z" transform="translate(0)" fill="#fff"/><path d="M212.94,14.7V16H208.5v4.13h4v1.31h-4V26h4.44V27.3h-6V14.7Z" transform="translate(0)" fill="#fff"/><path d="M215.81,14.7h1.58l2.16,11,2.32-11h1.55l-2.83,12.6h-2.14Z" transform="translate(0)" fill="#fff"/><circle cx="21" cy="21" r="21" fill="#fff"/><path d="M26.26,24.8a.41.41,0,0,0-.57,0A5,5,0,0,1,17.49,21H13a9.45,9.45,0,0,0,15.84,7,.4.4,0,0,0,0-.56Z" transform="translate(0)" fill="url(#a)"/><path d="M28.86,14A9.45,9.45,0,0,0,13,21v9.45A4.47,4.47,0,0,0,17.49,26V21a5,5,0,0,1,8.2-3.79.41.41,0,0,0,.57,0l2.61-2.6A.4.4,0,0,0,28.86,14Z" transform="translate(0)" fill="url(#b)"/></svg>