<svg xmlns="http://www.w3.org/2000/svg" viewBox="0 0 22 22"><title>light-icon</title><rect width="22" height="22" fill="none"/><path d="M5.05,3.6l-.38-.38a1,1,0,0,0-1.41,0h0a1,1,0,0,0,0,1.42L3.64,5A1,1,0,0,0,5.05,5h0A1,1,0,0,0,5.05,3.6Z" transform="translate(0 0)" fill="#17191e"/><rect y="10" width="3" height="2.01" rx="1" ry="1" fill="#17191e"/><rect x="10" width="2" height="2.96" rx="1" ry="1" fill="#17191e"/><path d="M18.74,3.21h0a1,1,0,0,1,0,1.42L18.36,5A1,1,0,0,1,17,5h0A1,1,0,0,1,17,3.6l.39-.39A1,1,0,0,1,18.74,3.21Z" transform="translate(0 0)" fill="#17191e"/><path d="M16.94,18.4l.39.39a1,1,0,0,0,1.4,0h0a1,1,0,0,0,0-1.41L18.34,17a1,1,0,0,0-1.4,0h0A1,1,0,0,0,16.94,18.4Z" transform="translate(0 0)" fill="#17191e"/><rect x="19" y="10" width="3" height="2.01" rx="1" ry="1" fill="#17191e"/><path d="M11,5a6,6,0,1,0,6,6A6,6,0,0,0,11,5ZM11,15a4,4,0,1,1,4-4A4,4,0,0,1,11,15Z" transform="translate(0 0)" fill="#17191e"/><rect x="10" y="19.04" width="2" height="2.96" rx="1" ry="1" fill="#17191e"/><path d="M3.25,18.78h0a1,1,0,0,0,1.41,0l.39-.39a1,1,0,0,0,0-1.42h0a1,1,0,0,0-1.41,0l-.39.38A1,1,0,0,0,3.25,18.78Z" transform="translate(0 0)" fill="#17191e"/></svg>