<svg xmlns="http://www.w3.org/2000/svg" xmlns:xlink="http://www.w3.org/1999/xlink" viewBox="0 0 690 690"><defs><linearGradient id="a" x1="183.14" y1="245.19" x2="587.56" y2="649.62" gradientUnits="userSpaceOnUse"><stop offset="0" stop-color="#00cce9"/><stop offset="1" stop-color="#005eff"/></linearGradient></defs><title>clean-air</title><rect width="690" height="690" fill="none"/><path d="M458.59,61.1a55.47,55.47,0,1,1-40.08,94.37,53.62,53.62,0,0,1-15.38-38.87l-2,0h2A55.53,55.53,0,0,1,458.59,61.1M356,150.75a26.76,26.76,0,0,1,19,8L415.23,199c38.54,38.55,68.16,56.26,105.61,63.19a27.89,27.89,0,0,1,22,31.61,26.3,26.3,0,0,1-26.18,21.89,14.31,14.31,0,0,1-4.54-.47l-.14,0-.14,0C470.67,307.73,436.93,290.34,399,257l-1.41-1.23-1.32,1.31-78.73,78.16-1.31,1.29,1.18,1.41a230.33,230.33,0,0,1,40.31,70.22,234.69,234.69,0,0,1,13.82,79.64,26.74,26.74,0,0,1-53.47,0c0-50.3-20.75-98.59-57-132.5-6.78-6.22-41-41-41.32-41.32a26.57,26.57,0,0,1,0-38L337,158.78a26.76,26.76,0,0,1,19-8M545.94,346.14a141.55,141.55,0,0,1,107.68,234,140.36,140.36,0,0,1-94.76,48.56V582.9l63.78-62.07.58-.58,0,0,0-.05a13.72,13.72,0,0,0,3.44-9.34,12.24,12.24,0,0,0-4.21-9,13.68,13.68,0,0,0-9-3.44,12.22,12.22,0,0,0-9.28,4.15L560,546.77V507.6L602,465.66l0-.05,0-.05c5.05-5.77,5-13.82-.18-18.34a14.15,14.15,0,0,0-9.29-3.51,12.51,12.51,0,0,0-9,3.61l-24.17,24.17V412.33a12.84,12.84,0,0,0-12.51-11.62,11.31,11.31,0,0,0-1.17.06c-6.91.69-12.18,6.89-11.57,13.57v57.15L510,447.32l0-.05,0,0a14.82,14.82,0,0,0-9.57-3.73,11.49,11.49,0,0,0-8.77,3.92c-4.75,5.43-4.71,13.45.09,18.25L533.6,507.6v39.17l-44.28-44.29-.58-.57-.05-.05-.05,0a13.68,13.68,0,0,0-9-3.44,12.2,12.2,0,0,0-9.32,4.2,13.62,13.62,0,0,0-3.44,9.34,12.2,12.2,0,0,0,4.15,8.95l62,62v45.86a139.7,139.7,0,0,1-90.93-44.45,141.48,141.48,0,0,1-37.82-96.48c0-78.12,63.55-141.67,141.66-141.67m-402.27,0h0a141.55,141.55,0,0,1,107.1,234A140.36,140.36,0,0,1,156,628.74V582.89l63.2-62.63,0,0,.05-.05a14.73,14.73,0,0,0,3.73-9.24,11.47,11.47,0,0,0-3.92-9.1,14.09,14.09,0,0,0-9.29-3.51,12.57,12.57,0,0,0-9,3.6l-44.28,44.28V507l41.94-41.94.05-.06,0-.06a13.29,13.29,0,0,0,0-17l0-.06-.05-.05A13.6,13.6,0,0,0,189,444a13.24,13.24,0,0,0-8.69,3.24l-.05,0,0,.05L156,471.49V412.33a12.83,12.83,0,0,0-12.51-11.62,11.46,11.46,0,0,0-1.17.06c-6.9.69-12.18,6.89-11.57,13.57v57.15l-24.17-24.17,0-.06-.06-.05a13.26,13.26,0,0,0-17,0l-.06.05,0,.06a13.38,13.38,0,0,0-.67,18.24l0,.05,0,.05,41.94,41.94v39.17L86.47,502.48l0,0,0-.05a14.15,14.15,0,0,0-9.29-3.51,12.57,12.57,0,0,0-9,3.6l-.05,0,0,.05c-4.75,5.43-4.71,13.45.09,18.25l62.06,62v45.85A141.48,141.48,0,0,1,2,487.81c0-78.12,63.55-141.67,141.67-141.67m314.92-287a57.63,57.63,0,0,0-57.46,57.47c-.58,32.18,25.28,57.46,57.46,57.46a57.47,57.47,0,1,0,0-114.93Zm-57.46,57.47Zm0,0h0ZM356,148.75a28.76,28.76,0,0,0-20.4,8.62L218.38,274.6a28.44,28.44,0,0,0,0,40.8s34.48,35.06,41.37,41.38c36.21,33.91,56.32,81.61,56.32,131a28.74,28.74,0,0,0,57.47,0A234.76,234.76,0,0,0,319,336.67l78.73-78.16c37.93,33.33,72.41,51.15,113.78,58.62a16.08,16.08,0,0,0,5.18.57,28.4,28.4,0,0,0,28.16-23.56,30,30,0,0,0-23.57-33.91c-37.35-6.89-66.66-24.71-104.59-62.64l-40.23-40.22a28.73,28.73,0,0,0-20.4-8.62ZM545.94,344.14A143.71,143.71,0,0,0,402.28,487.81c0,75.28,58,137.92,132.75,143.09V582.06l-62.64-62.65c-4.6-4-4.6-10.91-.58-15.51a10.26,10.26,0,0,1,7.82-3.52,11.74,11.74,0,0,1,7.7,2.94l.57.58,47.7,47.7V506.77l-42.53-42.52c-4-4-4-10.92,0-15.52a9.49,9.49,0,0,1,7.27-3.24,12.71,12.71,0,0,1,8.25,3.24l27.59,27.58V414.25c-.58-5.75,4-10.92,9.76-11.49a8.15,8.15,0,0,1,1-.05,10.89,10.89,0,0,1,10.52,9.81v63.79L585,448.73a10.59,10.59,0,0,1,7.55-3,12.15,12.15,0,0,1,8,3c4.6,4,4,10.92,0,15.52L558,506.77V551.6l47.7-47.7a10.26,10.26,0,0,1,7.82-3.52,11.74,11.74,0,0,1,7.7,2.94c4.6,4,4.6,10.92.57,15.52l-.57.57-64.37,62.65V630.9c79.31-5.74,138.5-74.71,132.75-154-5.74-74.71-68.38-132.75-143.67-132.75Zm-402.27,0A143.72,143.72,0,0,0,0,487.81C0,562.52,57.47,625.16,132.18,630.9V582.06L69.54,519.41c-4-4-4-10.91,0-15.51a10.59,10.59,0,0,1,7.54-3,12.15,12.15,0,0,1,8,3l47.7,47.7V506.77L90.22,464.25a11.49,11.49,0,0,1,.58-15.52,11.26,11.26,0,0,1,14.37,0l27.58,27.58V414.25c-.57-5.75,4-10.92,9.77-11.49a8,8,0,0,1,1-.05A10.88,10.88,0,0,1,154,412.52v63.79l27.59-27.58A11.12,11.12,0,0,1,189,446a11.56,11.56,0,0,1,8.14,3.32,11.27,11.27,0,0,1,0,14.37L154.59,506.2V551l47.7-47.7a10.58,10.58,0,0,1,7.54-3,12.14,12.14,0,0,1,8,3c4.6,4,4,10.92,0,15.52L154,582.06V630.9c79.31-5.74,138.5-74.71,132.75-154-6.32-74.13-68.38-132.18-143.09-132.75Z" transform="translate(0)" fill="url(#a)"/></svg>