<svg xmlns="http://www.w3.org/2000/svg" xmlns:xlink="http://www.w3.org/1999/xlink" viewBox="0 0 690 690"><defs><linearGradient id="a" x1="101.06" y1="101.05" x2="588.97" y2="588.96" gradientUnits="userSpaceOnUse"><stop offset="0" stop-color="#00cce9"/><stop offset="1" stop-color="#005eff"/></linearGradient><linearGradient id="b" x1="122.06" y1="489.15" x2="130.28" y2="497.37" xlink:href="#a"/><linearGradient id="c" x1="135.71" y1="501.63" x2="145.54" y2="511.46" xlink:href="#a"/><linearGradient id="d" x1="148.97" y1="519.72" x2="159.89" y2="530.65" xlink:href="#a"/><linearGradient id="e" x1="165.53" y1="538.96" x2="177.44" y2="550.86" xlink:href="#a"/><linearGradient id="f" x1="189.79" y1="553.32" x2="201.11" y2="564.64" xlink:href="#a"/><linearGradient id="g" x1="218.23" y1="558.13" x2="228.63" y2="568.53" xlink:href="#a"/><linearGradient id="h" x1="244.83" y1="555.1" x2="254.71" y2="564.98" xlink:href="#a"/></defs><title>github</title><rect width="690" height="690" fill="none"/><path d="M345,2A343,343,0,0,1,547.71,621.73a341.27,341.27,0,0,1-94,48.66,31.09,31.09,0,0,1-5.71.57c-11.43,0-15.48-8.18-15.48-15.19,0-3.76,0-10.23.1-19.19.12-17.77.29-44.63.29-75.49,0-26.29-7.56-48.71-20.9-62.39,73.13-8.83,155-37.4,155-171.72,0-35.8-11.84-67.09-35.19-93,4.33-11.13,14.36-45.56-3.84-91.62l-.35-.88-.9-.29a29.41,29.41,0,0,0-8.29-.9c-12.76,0-41,4.69-87.46,36A331.4,331.4,0,0,0,345,164.83a335.33,335.33,0,0,0-86,11.44c-46.46-31.3-74.79-36-87.57-36a29.32,29.32,0,0,0-8.29.9l-.9.29-.35.88c-18.16,46.07-8.13,80.5-3.8,91.62-23.38,26-35.23,57.31-35.23,93,0,134.24,81.75,163,154.73,172-9.82,10.16-16.59,25.31-19.27,43.26-9,3.94-22.63,8.42-37.67,8.42-25.05,0-45-12.36-59.15-36.68a81.61,81.61,0,0,0-13.82-17.34c-12-11.56-26-18.22-40.68-19.24h-.29c-3.57,0-15.35.48-17.28,6.73-1.45,4.71,3,10.39,13.94,17.89l.13.09.14.07c.22.11,22.12,10.86,37.28,49.36.35,1,4.29,12.1,15.94,23.27,11,10.52,31.17,23.07,65,23.07A175.4,175.4,0,0,0,257.05,594c.08,14.71.2,28.75.3,40.15.09,10,.15,17.86.15,21.62,0,7-4.1,15.18-15.67,15.18a30.94,30.94,0,0,1-5.4-.52A343.17,343.17,0,0,1,211.5,29,340.89,340.89,0,0,1,345,2m0-2C154.49,0,0,154.45,0,345,0,497.43,98.85,626.75,235.93,672.37a32.92,32.92,0,0,0,5.9.58c12.81,0,17.67-9.19,17.67-17.18,0-8.22-.31-35.4-.46-64.23a175.35,175.35,0,0,1-37.13,4.32c-64.3,0-79.11-45-79.11-45-15.69-39.87-38.3-50.48-38.3-50.48-30.07-20.56-.2-21,2.21-21h.15c34.64,2.43,52.88,35.56,52.88,35.56,17.19,29.46,40.37,37.71,60.91,37.71,16.23,0,30.8-5.15,39.49-9,3.1-22.29,12-37.52,21.9-46.13-76.63-8.72-157.18-38.31-157.18-170.5,0-37.67,13.48-68.44,35.55-92.6-3.58-8.7-15.4-43.78,3.34-91.31a28.17,28.17,0,0,1,7.68-.79c12.5,0,40.63,4.62,87.22,36.16a327.22,327.22,0,0,1,172.78,0c46.52-31.54,74.62-36.16,87.1-36.16a28.17,28.17,0,0,1,7.68.79c18.78,47.53,7,82.61,3.38,91.31,22.12,24.16,35.51,54.93,35.51,92.6,0,132.51-80.71,161.68-157.53,170.23,12.37,10.7,23.39,31.7,23.39,63.88,0,46.17-.39,83.32-.39,94.68,0,8,4.71,17.19,17.48,17.19a33.17,33.17,0,0,0,6.21-.63C591.27,626.65,690,497.38,690,345,690,154.45,535.53,0,345,0Z" transform="translate(0 0)" fill="url(#a)"/><path d="M130.67,495.34c-.76,1.72-3.46,2.23-5.91,1.06s-3.91-3.47-3.1-5.19,3.44-2.25,5.94-1.07,3.94,3.48,3.07,5.2Zm-4.25-3.14" transform="translate(0 0)" fill="none" stroke-miterlimit="10" stroke-width="2" stroke="url(#b)"/><path d="M144.65,510.93c-1.65,1.52-4.87.82-7.05-1.59s-2.68-5.63-1-7.17,4.81-.81,7.07,1.59,2.7,5.63,1,7.17Zm-3.3-3.53" transform="translate(0 0)" fill="none" stroke-miterlimit="10" stroke-width="2" stroke="url(#c)"/><path d="M158.25,530.8c-2.12,1.47-5.58.09-7.71-3s-2.12-6.75.05-8.22,5.54-.14,7.71,2.9,2.11,6.8-.05,8.3Zm0,0" transform="translate(0 0)" fill="none" stroke-miterlimit="10" stroke-width="2" stroke="url(#d)"/><path d="M176.88,550c-1.89,2.08-5.92,1.52-8.86-1.33s-3.86-6.72-2-8.81,6-1.5,8.94,1.32,3.91,6.75,1.89,8.82Zm0,0" transform="translate(0 0)" fill="none" stroke-miterlimit="10" stroke-width="2" stroke="url(#e)"/><path d="M202.59,561.14c-.84,2.7-4.71,3.93-8.62,2.78s-6.45-4.34-5.67-7.07,4.71-4,8.65-2.78,6.45,4.32,5.64,7.07Zm0,0" transform="translate(0 0)" fill="none" stroke-miterlimit="10" stroke-width="2" stroke="url(#f)"/><path d="M230.83,563.21c.09,2.84-3.22,5.2-7.32,5.25s-7.47-2.21-7.51-5,3.24-5.2,7.36-5.27,7.47,2.2,7.47,5Zm0,0" transform="translate(0 0)" fill="none" stroke-miterlimit="10" stroke-width="2" stroke="url(#g)"/><path d="M257.1,558.74c.49,2.77-2.36,5.62-6.43,6.38s-7.71-1-8.23-3.73,2.41-5.7,6.41-6.43,7.73,1,8.25,3.78Zm0,0" transform="translate(0 0)" fill="none" stroke-miterlimit="10" stroke-width="2" stroke="url(#h)"/></svg>