<?xml version="1.0" encoding="utf-8"?>
<!-- Generator: Adobe Illustrator 22.1.0, SVG Export Plug-In . SVG Version: 6.00 Build 0)  -->
<svg version="1.1" id="Layer_1" xmlns="http://www.w3.org/2000/svg" xmlns:xlink="http://www.w3.org/1999/xlink" x="0px" y="0px"
	 viewBox="0 0 690 690" style="enable-background:new 0 0 690 690;" xml:space="preserve">
<style type="text/css">
	.st0{fill:none;}
	.st1{fill:url(#SVGID_1_);}
</style>
<rect class="st0" width="690" height="690"/>
<g>
	<linearGradient id="SVGID_1_" gradientUnits="userSpaceOnUse" x1="56.874" y1="56.8755" x2="633.1259" y2="633.1274">
		<stop  offset="0" style="stop-color:#00CCE9"/>
		<stop  offset="1" style="stop-color:#005EFF"/>
	</linearGradient>
	<path class="st1" d="M600.7,45.1c23.3,0,42.3,18.5,42.3,41.3v517.3c0,22.7-19,41.3-42.3,41.3H89.3C66,644.9,47,626.4,47,603.7V86.3
		c0-22.7,19-41.3,42.3-41.3H600.7 M181,240.7h0.6c31.4,0,53.3-20.2,53.3-49.1c-0.6-29.3-21.8-49.1-52.7-49.1
		c-31.4,0-53.3,20.2-53.3,49.1C128.9,220,150.8,240.7,181,240.7 M369.7,308v-32.1v-2h-2H277h-2.1l0.1,2.1c1.2,25.2,0,270.1,0,272.5
		l0,2h2h90.6h2v-2V396.3c0-9.9,0.9-16.7,2.8-21.4c2.5-6.2,7.2-14.9,15.7-21.9c8.2-6.6,17.9-10,28.9-10c15,0,26.3,5.5,33.6,16.2
		c6.8,10,10.3,24.7,10.3,43.4v145.9v2h2h90.6h2v-2V392.2c0-78.1-39.8-124.7-106.3-124.7C405.6,267.5,383,289.2,369.7,308
		 M134.3,550.5h2h90.6h2v-2V275.9v-2h-2h-90.6h-2v2v272.7V550.5 M600.7,43.1H89.3C64.9,43.1,45,62.5,45,86.3v517.3
		c0,23.9,19.9,43.3,44.3,43.3h511.3c24.5,0,44.3-19.4,44.3-43.3V86.3C645,62.5,625.1,43.1,600.7,43.1L600.7,43.1z M181,238.7
		c-30.4,0-50.1-20.9-50.1-47.1c0-26.8,20.3-47.1,51.3-47.1c31,0,50.1,20.4,50.7,47.1c0,26.2-19.7,47.1-51.3,47.1h0H181L181,238.7z
		 M367.7,314.5c12-18.6,33.6-45,81.7-45c59.6,0,104.3,39,104.3,122.7v156.3H463V402.7c0-36.7-13.1-61.7-45.9-61.7
		c-25,0-39.9,16.9-46.5,33.1c-2.4,5.8-3,14-3,22.1v152.3H277c0,0,1.2-247.1,0-272.7h90.6V314.5L367.7,314.5z M136.3,548.5V275.9
		h90.6v272.7H136.3L136.3,548.5z"/>
</g>
</svg>
