<svg version="1" xmlns="http://www.w3.org/2000/svg" width="933.333" height="933.333" viewBox="0 0 700.000000 700.000000"><path d="M380.8.5c-.1.1-4.1.5-8.8.9-4.7.3-9.4.8-10.5 1-1.1.2-4.9.7-8.5 1.1-3.6.4-6.7.8-7 1-.3.2-2.6.6-5 1-2.5.3-6.5 1.1-9 1.7-2.5.5-5.6 1.2-7 1.4-25.6 4.8-69.7 22.1-97.4 38.2-32.8 19.1-65.6 46.2-89.1 73.7-3.3 3.8-6.3 7.2-6.6 7.5-1.9 1.7-16.9 22.4-23.1 32-10.7 16.4-18 29.9-27.3 50.5-9.8 21.6-20.4 57.2-24 80.5-.3 1.9-.8 4.6-1 6-.7 3.7-1.9 14.1-3.1 27-.4 4.1-.8 90.5-.8 191.8l-.1 184.4 10-.7c20-1.2 35.7-4.9 55.4-13 23.8-9.8 50.2-30.3 66.1-51.4 1.4-1.8 3.2-4.2 4.1-5.4l1.6-2 3.9 2.9c2.1 1.6 4.1 3.1 4.4 3.4.3.3 5 3.5 10.5 7.1 46.9 30.9 94.7 48.7 151 56.3 20.3 2.8 68.4 2.8 84.5.2 1.4-.3 4.8-.7 7.5-1.1 41.2-4.9 90.5-22.3 131-46.3 22.3-13.2 56-39.4 59.5-46.2 2.1-4.2 1.9-10-.5-13.7-.9-1.4-24.3-25.2-51.9-52.9-48.9-49.1-50.2-50.3-54.7-50.9-5.7-.8-9.6.7-16.9 6.8-19.5 16-49.1 30.5-74 36.1-6.9 1.6-9.4 2-17.5 3.2-2.7.3-5.9.8-7 1-2.9.6-29.2.5-34 0-12.6-1.6-14.6-1.9-25-4.2-19.3-4.2-42.5-14.2-59.2-25.6-16.4-11-33.5-26.6-42.7-38.8-2.2-3-4.3-5.7-4.7-6-1-.9-8.5-12.4-11.4-17.5-12.7-22.5-20.6-47-23.2-71.5-1.4-13.3-.8-37.6 1.3-50 2.9-18 13.3-48 20.4-59 .5-.8 1.9-3.1 3-5 8.9-15.4 24.8-34.2 39.5-46.7 22.8-19.4 54-34.6 81.9-39.9 1.2-.2 3.2-.6 4.6-.9 2.5-.4 5.3-.8 16-2.1 7.3-.8 23.6-.8 33 .1 35.5 3.2 69.7 16.6 97 38 3.6 2.8 7.8 5.9 9.3 6.9 3.2 1.9 8.9 2.3 12.8.8 3.6-1.4 102.9-100.9 104.5-104.8 2.4-5.7.2-12.3-6-17.7-40.2-35.8-87.6-62-138.1-76.3-4.9-1.4-9.8-2.8-10.8-3-1-.2-2.6-.5-3.5-.8-.9-.3-2.8-.7-4.2-1-1.4-.2-5.6-1.1-9.5-1.9-3.8-.8-9.2-1.8-11.9-2.2-2.7-.3-5.2-.8-5.5-1-.4-.2-4.2-.6-8.6-1-4.4-.3-9.3-.9-11-1.1-3.3-.6-52.1-1.4-52.7-.9z"/></svg>